<?xml version="1.0" encoding="iso-8859-1"?>
<!-- Generator: Adobe Illustrator 19.0.0, SVG Export Plug-In . SVG Version: 6.00 Build 0)  -->
<svg version="1.1" id="Layer_1" xmlns="http://www.w3.org/2000/svg" xmlns:xlink="http://www.w3.org/1999/xlink" x="0px" y="0px"
	 viewBox="0 0 512 512" style="enable-background:new 0 0 512 512;" xml:space="preserve">
<g>
	<g>
		<path d="M256.003,22.261c-131.957,0-244.87,107.347-244.87,239.304S124.047,500.87,256.003,500.87s244.87-107.347,244.87-239.304
			S387.96,22.261,256.003,22.261z M122.438,166.957c0-18.44,14.952-33.391,33.391-33.391c18.44,0,33.391,14.951,33.391,33.391
			c0,18.44-14.951,33.391-33.391,33.391C137.39,200.348,122.438,185.396,122.438,166.957z M256.003,434.087
			c-58.305,0-105.739-47.435-105.739-105.739s47.435-105.739,105.739-105.739c58.305,0,105.739,47.435,105.739,105.739
			S314.308,434.087,256.003,434.087z M367.308,200.348c-18.44,0-33.391-14.952-33.391-33.391c0-18.44,14.952-33.391,33.391-33.391
			s33.391,14.951,33.391,33.391C400.699,185.396,385.747,200.348,367.308,200.348z"/>
	</g>
</g>
<g>
	<g>
		<path d="M256.003,256c-39.891,0-72.348,32.456-72.348,72.348s32.456,72.348,72.348,72.348s72.348-32.456,72.348-72.348
			S295.895,256,256.003,256z M239.304,339.478c0,9.22-7.475,16.696-16.696,16.696s-16.696-7.475-16.696-16.696v-11.13
			c0-9.22,7.475-16.696,16.696-16.696s16.696,7.475,16.696,16.696V339.478z M306.087,339.478c0,9.22-7.475,16.696-16.696,16.696
			s-16.696-7.475-16.696-16.696v-11.13c0-9.22,7.475-16.696,16.696-16.696s16.696,7.475,16.696,16.696V339.478z"/>
	</g>
</g>
<g>
	<g>
		<path d="M105.742,11.13H16.699C7.482,11.13,0,18.609,0,27.826v89.043c0,9.696,1.398,19.158,3.912,28.252
			c27-56.937,73.146-103.081,130.083-130.084C124.9,12.527,115.438,11.13,105.742,11.13z"/>
	</g>
</g>
<g>
	<g>
		<path d="M495.308,11.13h-89.043c-9.696,0-19.159,1.397-28.254,3.908c56.938,27.002,103.081,73.147,130.084,130.084
			c2.511-9.095,3.906-18.557,3.906-28.252V27.826C512,18.609,504.525,11.13,495.308,11.13z"/>
	</g>
</g>
<g>
</g>
<g>
</g>
<g>
</g>
<g>
</g>
<g>
</g>
<g>
</g>
<g>
</g>
<g>
</g>
<g>
</g>
<g>
</g>
<g>
</g>
<g>
</g>
<g>
</g>
<g>
</g>
<g>
</g>
</svg>
